<svg xmlns="http://www.w3.org/2000/svg" xmlns:xlink="http://www.w3.org/1999/xlink" viewBox="0 0 340 340"><defs><linearGradient id="a" x1="20" y1="170" x2="320" y2="170" gradientUnits="userSpaceOnUse"><stop offset="0" stop-color="#007c42"/><stop offset="1" stop-color="#6cce7a"/></linearGradient></defs><title>icon</title><path d="M252.9,318.4a21.5,21.5,0,0,1-11,1.4,285.8,285.8,0,0,1-129.5-51.7,282.7,282.7,0,0,1-90.5-111,21.5,21.5,0,0,1,2.2-21.5,282.5,282.5,0,0,1,258.1-114,21.5,21.5,0,0,1,17.5,13.3,283,283,0,0,1,17.4,145.6,284.6,284.6,0,0,1-55.4,131.1A21.4,21.4,0,0,1,252.9,318.4Z" fill="url(#a)"/><path d="M252.9,219.4l-2.2-.5a11.6,11.6,0,0,1-7.1-14.8c3.6-10.3.2-15-.9-16.5-8.9-12.6-39.3-13.7-51.9-13.6-30.9.2-51.6-7.4-61.6-22.6s-6.1-31.4-2.6-39.2a11.6,11.6,0,0,1,21.2,9.3c-.1.3-4,10.1.8,17.3s20.2,12.2,42,12c35.9-.2,59.7,7.6,71,23.3,7.5,10.5,8.8,23.5,3.8,37.7A11.5,11.5,0,0,1,252.9,219.4Z" fill="#fff"/><path d="M160.6,98.1a92,92,0,0,1,31.8-4.8c24,.7,38.2,8.8,53.2,28.4a10.8,10.8,0,0,0,6.2,4,10.8,10.8,0,0,0,11.1-17.2C239,77.3,214.3,72.3,193.1,71.6a111.7,111.7,0,0,0-40.5,6.3,10.9,10.9,0,1,0,8,20.2Z" fill="#fff" opacity="0.7"/><path d="M231,226.2a90.1,90.1,0,0,1-31.9,4.8c-24-.7-43.7-11-58.7-30.6a10.9,10.9,0,1,0-17.3,13.1c17.2,22.6,37.8,32.6,55.9,36.7a102.2,102.2,0,0,0,19.5,2.5,109,109,0,0,0,40.4-6.3,10.8,10.8,0,0,0-7.9-20.2Z" fill="#fff" opacity="0.7"/></svg>