<svg xmlns="http://www.w3.org/2000/svg" xmlns:xlink="http://www.w3.org/1999/xlink" width="1920" height="1666" viewBox="0 0 1920 1666">
  <defs>
    <clipPath id="clip-path">
      <rect id="Rectangle_27" data-name="Rectangle 27" width="1920" height="1666" fill="#fff" stroke="#707070" stroke-width="1"/>
    </clipPath>
  </defs>
  <g id="Mask_Group_1" data-name="Mask Group 1" clip-path="url(#clip-path)">
    <g id="Group_37" data-name="Group 37">
      <g id="Group_12" data-name="Group 12" opacity="0.077">
        <path id="Path_15" data-name="Path 15" d="M211.586,2302.377c42.943,29.04,151.966,3.733,162.577,0,86.852-30.458,132.441-125.367,101.983-211.828-51.876-147.965-205.791-524.852,11.79-767.373,129.1-180.583,564.743-196.893,746.113-195.518,444.09,3.34,742.182-105.717,885.43-324.029,135.193-205.735,86.853-451.362,36.942-563.957-37.139-84.1-135.388-122.222-219.491-84.691-83.513,36.745-121.437,134.209-85.477,217.918,2.161,5.306,58.361,146.2-11.4,249.949-75.848,113.38-290.427,174.3-603.649,172.331-514.83-4.126-857.723,108.665-1019.247,334.64-107.486,150.323-126.546,867.392-55.021,1070.573C188.863,2276.635,134.754,2312.988,211.586,2302.377Z" transform="translate(-214.648 -338.528)" fill="#3aa860"/>
      </g>
    </g>
  </g>
</svg>
