<svg xmlns="http://www.w3.org/2000/svg" width="543.262" height="543.263" viewBox="0 0 543.262 543.263">
  <g id="Group_96" data-name="Group 96" transform="translate(593.999 -3995.451)">
    <path id="Path_44" data-name="Path 44" d="M299.843,384.167a27.553,27.553,0,0,1-14.153,1.858,365.9,365.9,0,0,1-166.667-66.639A363.061,363.061,0,0,1,2.472,176.46,27.5,27.5,0,0,1,5.3,148.841,363.816,363.816,0,0,1,337.536,2.085,27.551,27.551,0,0,1,360.12,19.209,362.848,362.848,0,0,1,382.47,206.614a365.2,365.2,0,0,1-71.3,168.864A27.5,27.5,0,0,1,299.843,384.167Z" transform="translate(-545.74 4456.812) rotate(-89)" fill="#b4dbba" opacity="0.3"/>
    <path id="Path_43" data-name="Path 43" d="M299.843,384.167a27.553,27.553,0,0,1-14.153,1.858,365.9,365.9,0,0,1-166.667-66.639A363.061,363.061,0,0,1,2.472,176.46,27.5,27.5,0,0,1,5.3,148.841,363.816,363.816,0,0,1,337.536,2.085,27.551,27.551,0,0,1,360.12,19.209,362.848,362.848,0,0,1,382.47,206.614a365.2,365.2,0,0,1-71.3,168.864A27.5,27.5,0,0,1,299.843,384.167Z" transform="translate(-593.999 4238.532) rotate(-39)" fill="#8fd499" opacity="0.7"/>
    <path id="Path_38" data-name="Path 38" d="M299.843,384.167a27.553,27.553,0,0,1-14.153,1.858,365.9,365.9,0,0,1-166.667-66.639A363.061,363.061,0,0,1,2.472,176.46,27.5,27.5,0,0,1,5.3,148.841,363.816,363.816,0,0,1,337.536,2.085,27.551,27.551,0,0,1,360.12,19.209,362.848,362.848,0,0,1,382.47,206.614a365.2,365.2,0,0,1-71.3,168.864A27.5,27.5,0,0,1,299.843,384.167Z" transform="matrix(1, 0.017, -0.017, 1, -458.298, 4070.61)" fill="#6bcd7a"/>
  </g>
</svg>
