<svg xmlns="http://www.w3.org/2000/svg" viewBox="0 0 400 160"><title>wordmark-black</title><path d="M293,149.6H100.3a8.3,8.3,0,0,1-8.3-8.3,8.4,8.4,0,0,1,8.3-8.4H293a8.5,8.5,0,0,1,8.4,8.4A8.4,8.4,0,0,1,293,149.6Z"/><path d="M71.9,74.7c-3.9-3.4-10.4-6-19.7-7.9a50,50,0,0,1-9.6-2.6c-2.5-1-3.6-2-4-2.6a5,5,0,0,1-.9-3.1c0-1,.3-2.6,2.7-3.8a17.6,17.6,0,0,1,8.5-1.8A24.8,24.8,0,0,1,56.7,54a16.1,16.1,0,0,1,6,3.7,10,10,0,0,0,6.9,2.7,7.7,7.7,0,0,0,4.5-1.3A6.6,6.6,0,0,0,76.8,54a8,8,0,0,0-2-5,25.1,25.1,0,0,0-10.7-7.6,40,40,0,0,0-27.8-.6,23.2,23.2,0,0,0-10,6.8,16.6,16.6,0,0,0-4,11.3c0,10.8,8.4,17.9,25,21.1,5.8,1.1,9.9,2.4,12.3,4a5.7,5.7,0,0,1,3,4.9,5.3,5.3,0,0,1-3.1,4.8c-2.3,1.4-5.6,2.1-10,2.1a26,26,0,0,1-9.3-1.7,17.8,17.8,0,0,1-6.4-4.2c-3.3-3.2-7-3.7-11.2-.6a7.4,7.4,0,0,0-3.1,6.1,6.9,6.9,0,0,0,2.1,5,30.9,30.9,0,0,0,12.1,7.2h0A48.9,48.9,0,0,0,50,110.3a37.5,37.5,0,0,0,15-2.8,22.9,22.9,0,0,0,9.8-7.9,19.9,19.9,0,0,0,3.3-11.2A17.2,17.2,0,0,0,71.9,74.7Z"/><path d="M122.2,53.1a18.4,18.4,0,0,1,7.6,1.4,17.8,17.8,0,0,1,6.1,4.4,7.9,7.9,0,0,0,6,2.8,6.2,6.2,0,0,0,3.8-1.2,7,7,0,0,0,3.4-5.9,6,6,0,0,0-1.6-4.3,32.4,32.4,0,0,0-25.3-11.7,36.3,36.3,0,0,0-18.1,4.6A33,33,0,0,0,91.6,56.1a38.5,38.5,0,0,0-4.4,18.4,35.9,35.9,0,0,0,4.6,18.2,32.8,32.8,0,0,0,12.7,12.9,36.1,36.1,0,0,0,18.3,4.7,33.3,33.3,0,0,0,23.3-8.8A6.1,6.1,0,0,0,148,97a7.1,7.1,0,0,0-3-5.7c-2.8-2.2-6.3-2-9.8.6s-7.3,3.9-12.4,3.9a20,20,0,0,1-10.5-2.7,18.6,18.6,0,0,1-7.2-7.5,23.6,23.6,0,0,1-2.5-11.1c0-6.5,1.8-11.8,5.4-15.6S116.3,53.1,122.2,53.1Z"/><path d="M227.3,41.2a8.5,8.5,0,0,0-11.4,0,7.8,7.8,0,0,0-2.3,5.8V81.6a12.4,12.4,0,0,1-2.1,7.1,15.1,15.1,0,0,1-6,5.1,18.7,18.7,0,0,1-8.6,1.9c-5.5,0-9.8-1.5-13.1-4.6S179,83.4,179,77.2V47a8,8,0,1,0-15.9,0V77.2a37.7,37.7,0,0,0,4,17.8,27.8,27.8,0,0,0,11.3,11.5,32.7,32.7,0,0,0,16,3.9,33.1,33.1,0,0,0,12.2-2.3,30.9,30.9,0,0,0,7.3-4.2,7.2,7.2,0,0,0,2,3.6,8.2,8.2,0,0,0,11.4,0,7.7,7.7,0,0,0,2.2-5.7V47a7.8,7.8,0,0,0-2.2-5.8Z"/><path d="M269,94.1h-3.1c-.7,0-1.8-.2-3-2.1a14.2,14.2,0,0,1-1.4-6.7V18.2a7.4,7.4,0,0,0-2.3-5.6,7.3,7.3,0,0,0-5.6-2.2,7.5,7.5,0,0,0-7.8,7.8V85.3a31.3,31.3,0,0,0,2.5,12.5,20.9,20.9,0,0,0,7.2,8.8,18.2,18.2,0,0,0,10.4,3.2h.3a11.4,11.4,0,0,0,7-2.1,6.8,6.8,0,0,0,3-5.8,8.1,8.1,0,0,0-2-5.5A6.7,6.7,0,0,0,269,94.1Z"/><path d="M305.9,94.1h-3.1c-.8,0-1.9-.2-3-2.1a13,13,0,0,1-1.5-6.7V18.2a7.3,7.3,0,0,0-2.2-5.6,7.6,7.6,0,0,0-5.6-2.2,7.5,7.5,0,0,0-5.6,2.2,7.3,7.3,0,0,0-2.2,5.6V85.3a29.7,29.7,0,0,0,2.5,12.5,20,20,0,0,0,7.1,8.8,18.3,18.3,0,0,0,10.5,3.2h.2a11.2,11.2,0,0,0,7-2.1,6.9,6.9,0,0,0,3.1-5.8,8.1,8.1,0,0,0-2-5.5A6.8,6.8,0,0,0,305.9,94.1Z"/><path d="M375.7,39.9a8.6,8.6,0,0,0-3.6-.8c-2,0-4.6.8-6.3,4.6L347.4,85.1,326.5,43.5a7.1,7.1,0,0,0-6.6-4.4,8.3,8.3,0,0,0-3.2.7,8.2,8.2,0,0,0-3.2,2.6,6.3,6.3,0,0,0-1.3,3.9,7.1,7.1,0,0,0,.8,3.4l27.3,51.8-12,26.9a8.1,8.1,0,0,0-.9,3.7c0,1.9.8,4.6,4.7,6.3a9.4,9.4,0,0,0,3.6.9c2.1,0,4.8-.9,6.3-4.8l37.6-84.7a8.7,8.7,0,0,0,.9-3.6C380.5,44.2,379.7,41.4,375.7,39.9Z"/></svg>