<?xml version="1.0" encoding="utf-8"?>
<!-- Generator: Adobe Illustrator 16.0.0, SVG Export Plug-In . SVG Version: 6.00 Build 0)  -->
<!DOCTYPE svg PUBLIC "-//W3C//DTD SVG 1.1//EN" "http://www.w3.org/Graphics/SVG/1.1/DTD/svg11.dtd">
<svg version="1.1" id="Layer_1" xmlns="http://www.w3.org/2000/svg" xmlns:xlink="http://www.w3.org/1999/xlink" x="0px" y="0px"
	 width="261.901px" height="262.006px" viewBox="0 0 261.901 262.006" enable-background="new 0 0 261.901 262.006"
	 xml:space="preserve">
<path id="Path_38_3_" opacity="0.12" fill="#010101" enable-background="new    " d="M204.413,260.533
	c-3.025,1.275-6.332,1.736-9.59,1.328c-40.883-5.154-79.84-20.406-113.354-44.385c-34.431-24.724-61.896-57.914-79.737-96.365
	c-2.834-6.113-2.153-13.277,1.784-18.746C54.996,31.02,140.573-7.518,228.119,1.224c6.864,0.698,12.784,5.12,15.401,11.504
	c16.462,40.171,22.006,83.981,16.068,126.989c-5.822,41.707-22.185,81.242-47.535,114.869
	C210.075,257.205,207.439,259.258,204.413,260.533z"/>
</svg>
