<?xml version="1.0" encoding="utf-8"?>
<!-- Generator: Adobe Illustrator 16.0.0, SVG Export Plug-In . SVG Version: 6.00 Build 0)  -->
<!DOCTYPE svg PUBLIC "-//W3C//DTD SVG 1.1//EN" "http://www.w3.org/Graphics/SVG/1.1/DTD/svg11.dtd">
<svg version="1.1" id="Layer_1" xmlns="http://www.w3.org/2000/svg" xmlns:xlink="http://www.w3.org/1999/xlink" x="0px" y="0px"
	 width="16382.881px" height="16382.881px" viewBox="0 0 16382.881 16382.881" enable-background="new 0 0 16382.881 16382.881"
	 xml:space="preserve">
<title>logo</title>
<linearGradient id="SVGID_1_" gradientUnits="userSpaceOnUse" x1="-368.5395" y1="16560.2813" x2="-126.3063" y2="16560.2813" gradientTransform="matrix(20.4786 0 0 -20.4786 7886.6099 347390.9063)">
	<stop  offset="0" style="stop-color:#007C42"/>
	<stop  offset="1" style="stop-color:#6CCE7A"/>
</linearGradient>
<path fill="url(#SVGID_1_)" d="M4191.296,10712.322c-57.46,23.9-120.146,32.45-181.906,24.806
	c-773.88-103.355-1509.856-397.746-2141.531-856.612c-648.513-472.885-1164-1105.141-1496.591-1835.601
	c-53.005-116.381-39.096-252.307,36.381-355.543c985.096-1343.061,2610.36-2060.57,4266.526-1883.555
	c130.382,13.449,242.513,98.186,291.05,219.941c305.933,762.764,404.635,1592.887,286.089,2406.121
	c-115.519,789.172-430.253,1535.885-914.492,2169.643C4298.488,10650.195,4248.412,10688.321,4191.296,10712.322z"/>
<path fill="#FFFFFF" d="M4191.296,9075.169c-12.972-1.172-25.749-3.947-38.035-8.271c-99.967-35.081-152.569-144.558-117.49-244.526
	c0.027-0.072,0.052-0.146,0.078-0.221c61.186-168.676,4.961-246.4-13.229-272.86c-148.833-206.71-649.902-226.554-858.267-224.899
	c-510.99,4.959-854.958-120.721-1018.674-372.082c-163.716-251.359-100.875-519.26-42.996-649.9
	c48.825-94.025,164.625-130.664,258.647-81.836c85.419,44.355,124.743,145.145,91.936,235.629
	c-1.654,6.613-66.149,168.678,13.229,287.742c79.377,119.066,334.045,200.096,694.55,198.441
	c593.677-4.961,987.254,125.682,1174.123,385.311c122.373,171.985,145.524,388.618,62.84,621.789
	C4368.065,9035.452,4281.399,9088.147,4191.296,9075.169z"/>
<path opacity="0.7" fill="#FFFFFF" enable-background="new    " d="M2663.284,7070.892
	c169.636-57.977,348.342-84.867,527.528-79.377c396.886,11.574,631.71,145.525,879.765,469.648
	c25.541,33.195,61.756,56.559,102.528,66.146c97.105,21.93,193.602-39.016,215.528-136.121
	c11.682-51.734-0.012-105.986-31.968-148.314c-395.232-515.951-805.349-600.287-1155.931-610.211
	c-227.275-7.727-453.959,27.621-668.091,104.184c-91.777,36.086-136.935,139.729-100.875,231.514
	C2467.904,7060.112,2571.059,7105.796,2663.284,7070.892z"/>
<path opacity="0.7" fill="#FFFFFF" enable-background="new    " d="M3829.137,9189.271
	c-169.855,56.932-348.471,83.246-527.528,77.725c-396.886-11.578-722.663-181.908-970.718-506.03
	c-65.025-75.38-178.845-83.772-254.224-18.746c-69.057,59.572-82.738,161.341-31.864,237.034
	c284.436,372.081,625.096,539.102,922.76,606.903c106.371,24.442,214.998,37.741,324.124,39.688
	c227.085,6.832,453.505-27.917,668.092-102.529c92.244-36.075,137.778-140.098,101.702-232.342
	C4025.406,9198.728,3921.383,9153.194,3829.137,9189.271L3829.137,9189.271z"/>
<path fill="#3AA860" d="M12854.219,9688.209H8835.396c-96.751,0-175.185-78.432-175.185-175.185
	c0-96.751,78.434-175.185,175.185-175.185h4018.822c96.752,0,175.184,78.434,175.184,175.185
	C13029.402,9609.777,12950.971,9688.209,12854.219,9688.209L12854.219,9688.209z"/>
<path fill="#232D2A" d="M8243.106,8124.061c-83.421-70.908-216.896-123.047-410.851-162.672
	c-68.852-13.236-136.509-32.068-202.296-56.309c-52.138-20.855-72.994-39.625-81.335-52.139
	c-13.252-19.658-19.833-43.055-18.771-66.736c0-20.855,4.172-52.141,56.31-79.252c55.21-26.412,116.149-38.6,177.271-35.453
	c54.982-1.639,109.879,5.4,162.671,20.855c46.124,16.496,88.11,42.826,123.046,77.164c39.223,36.391,90.411,57.164,143.902,58.396
	c33.648,0.91,66.654-9.359,93.848-29.199c34.097-24.936,54.856-64.145,56.312-106.361c-0.507-38.344-14.541-75.275-39.626-104.277
	c-60.444-70.131-137.027-124.523-223.153-158.5c-99.603-39.002-205.877-58.133-312.829-56.309
	c-91.017-0.881-181.448,14.664-266.949,45.881c-81.442,26.906-154.182,75.158-210.639,139.73
	c-54.58,66.213-83.458,149.883-81.334,235.666c0,225.236,175.185,373.309,519.297,440.047
	c120.96,22.941,208.554,50.053,256.52,83.42c47.968,33.369,64.652,62.568,64.652,102.191c0,39.625-20.855,75.08-64.652,102.192
	c-43.796,27.11-118.875,43.794-208.552,43.794c-66.498,0.443-132.423-12.316-193.955-37.539
	c-50.362-19.326-96.425-48.381-135.56-85.506c-66.737-68.822-145.987-79.25-231.494-14.599
	c-41.321,29.054-65.54,76.712-64.651,127.218c-0.794,38.973,14.256,76.6,41.71,104.275c72.572,68.377,159.5,119.68,254.435,150.158
	l0,0c109.301,37.916,224.254,56.96,339.941,56.311c107.158,1.945,213.591-17.924,312.831-58.395
	c82.017-34.082,152.318-91.338,202.296-164.758c47.371-68.581,72.16-150.236,70.908-233.578
	C8374.509,8299.932,8327.014,8194.982,8243.106,8124.061z"/>
<path fill="#232D2A" d="M9290.043,7673.586c54.915-0.777,109.457,9.141,160.586,29.197c48.457,21.176,91.833,52.463,127.218,91.762
	c30.396,37.82,76.623,59.393,125.132,58.396c28.407,0.303,56.17-8.463,79.25-25.025c43.338-25.982,70.158-72.525,70.908-123.049
	c0.753-33.059-11.189-65.15-33.369-89.676c-130.796-156.744-325.613-245.717-529.725-241.922
	c-131.465-2.219-261.113,30.914-375.396,95.934c-110.438,62.479-200.849,155.059-260.691,266.947
	c-62.029,118.289-93.569,250.186-91.764,383.738c-1.621,133.123,30.676,264.466,93.85,381.652
	c63.39,111.345,155.604,203.557,266.947,266.947c115.61,65.711,246.597,99.539,379.567,98.021
	c193.955,0,356.626-60.48,485.929-183.525c26.263-24.186,41.36-58.15,41.71-93.85c-1.609-47.1-24.654-90.883-62.565-118.877
	c-58.395-43.795-131.387-39.625-204.382,12.514c-72.994,52.139-152.244,83.42-260.691,83.42
	c-76.904,0.486-152.528-19.68-218.981-58.393c-62.852-37.467-114.104-91.605-148.072-156.416
	c-36.965-71.484-55.599-151.029-54.224-231.494c0-135.559,39.623-244.006,114.704-325.344
	C9071.062,7713.211,9169.082,7673.586,9290.043,7673.586z"/>
<path fill="#232D2A" d="M11484.022,7427.492c-31.891-32.121-75.724-49.504-120.96-47.969c-43.418-0.484-85.313,15.975-116.79,45.883
	c-32.121,31.891-49.504,75.723-47.965,120.961v723.68c0.527,51.977-14.746,102.887-43.798,145.988
	c-30.935,46.467-74.29,83.316-125.132,106.362c-56.539,27.243-118.691,40.817-181.441,39.624
	c-114.705,0-202.297-31.283-271.12-95.933c-68.821-64.653-100.105-160.589-100.105-289.89v-629.832
	c10.287-91.568-55.604-174.139-147.174-184.424c-91.567-10.287-174.138,55.605-184.426,147.174c-1.39,12.377-1.39,24.873,0,37.25
	v629.832c0,143.902,27.114,269.033,83.422,373.309c53.686,99.838,134.71,182.307,233.58,237.753
	c103.283,54.962,218.782,82.938,335.771,81.335c86.419,0.397,172.101-15.89,252.348-47.967
	c55.035-20.092,106.448-48.969,152.244-85.508c8.376,27.563,23.417,52.634,43.795,72.994c30.749,31.264,72.944,48.594,116.79,47.967
	c45.238,1.537,89.071-15.846,120.962-47.967c30.224-32.117,46.69-74.781,45.881-118.876V7546.367
	C11531.171,7502.193,11514.641,7459.359,11484.022,7427.492L11484.022,7427.492z"/>
<path fill="#232D2A" d="M12353.69,8528.652h-64.652c-16.684,0-39.625-4.17-62.565-43.795
	c-22.491-42.279-33.291-89.797-31.281-137.646V6945.734c1.422-43.584-15.175-85.828-45.884-116.791
	c-30.82-30.922-73.161-47.557-116.789-45.881c-43.585-1.424-85.828,15.174-116.79,45.881
	c-30.922,30.82-47.559,73.164-45.881,116.791v1401.477c-1.458,88.953,16.329,177.17,52.139,258.607
	c31.369,73.733,82.64,137.279,148.071,183.526c64.446,44.129,140.879,67.423,218.98,66.737h4.172
	c52.837,2.123,104.893-13.273,148.073-43.795c38.93-27.106,62.263-71.439,62.565-118.877c1.199-42.776-13.683-84.451-41.711-116.789
	C12434.902,8545.325,12395.169,8527.75,12353.69,8528.652z"/>
<path fill="#232D2A" d="M13121.166,8528.652h-62.566c-16.684,0-39.626-4.17-62.565-43.795
	c-22.492-42.279-33.293-89.797-31.284-137.646V6945.734c0.487-43.418-15.974-85.314-45.881-116.791
	c-30.962-30.707-73.205-47.305-116.79-45.881c-43.715-2.207-86.265,14.51-116.789,45.881
	c-30.922,30.82-47.559,73.164-45.882,116.791v1401.477c-1.119,88.715,15.913,176.719,50.053,258.607
	c32.132,73.875,84.107,137.402,150.16,183.526c64.443,44.129,140.877,67.423,218.98,66.737h4.172
	c52.19,2.136,103.59-13.285,145.986-43.795c39.785-26.346,63.375-71.166,62.565-118.877c1.983-42.531-12.169-84.245-39.626-116.789
	C13203.646,8545.232,13163.254,8527.703,13121.166,8528.652z"/>
<path fill="#232D2A" d="M14578.954,7398.297c-23.686-10.209-49.293-15.189-75.079-14.602c-41.71,0-98.021,16.688-133.476,93.85
	l-381.651,863.41l-435.876-867.582c-24.312-55.266-79.361-90.596-139.73-89.678c-22.164-0.109-44.132,4.143-64.652,12.514
	c-26.777,12.59-50.317,31.137-68.821,54.225c-31.835,44.748-35.863,103.574-10.429,152.244l569.352,1080.307l-248.179,561.006
	c-12.082,23.947-18.505,50.346-18.771,77.166c0,41.711,16.684,95.934,98.021,131.389c23.383,11.582,48.994,17.984,75.076,18.77
	c41.714,0,100.107-16.685,131.39-100.105l784.159-1764.361c11.401-24.191,17.786-50.439,18.771-77.164
	C14679.06,7487.973,14660.291,7431.664,14578.954,7398.297z"/>
</svg>
