<svg xmlns="http://www.w3.org/2000/svg" viewBox="0 0 340 340"><title>icon-green</title><path d="M299.7,34.9a21.5,21.5,0,0,0-17.5-13.3,282.5,282.5,0,0,0-258.1,114,21.5,21.5,0,0,0-2.2,21.5,282.7,282.7,0,0,0,90.5,111,285.8,285.8,0,0,0,129.5,51.7,21.1,21.1,0,0,0,19.8-8.2,284.6,284.6,0,0,0,55.4-131.1A283,283,0,0,0,299.7,34.9Zm-147.1,43a111.7,111.7,0,0,1,40.5-6.3c21.2.7,45.9,5.7,69.8,36.9a10.8,10.8,0,0,1-11.1,17.2,10.8,10.8,0,0,1-6.2-4c-15-19.6-29.2-27.7-53.2-28.4a92,92,0,0,0-31.8,4.8,10.9,10.9,0,1,1-8-20.2Zm86.3,168.5a109,109,0,0,1-40.4,6.3,102.2,102.2,0,0,1-19.5-2.5c-18.1-4.1-38.7-14.1-55.9-36.7a10.9,10.9,0,1,1,17.3-13.1c15,19.6,34.7,29.9,58.7,30.6a90.1,90.1,0,0,0,31.9-4.8,10.8,10.8,0,0,1,7.9,20.2Zm26.5-34.6a11.5,11.5,0,0,1-12.5,7.6l-2.2-.5a11.6,11.6,0,0,1-7.1-14.8c3.6-10.3.2-15-.9-16.5-8.9-12.6-39.3-13.7-51.9-13.6-30.9.2-51.6-7.4-61.6-22.6s-6.1-31.4-2.6-39.2a11.6,11.6,0,0,1,21.2,9.3c-.1.3-4,10.1.8,17.3s20.2,12.2,42,12c35.9-.2,59.7,7.6,71,23.3C269.1,184.6,270.4,197.6,265.4,211.8Z" fill="#3aa860"/></svg>